<svg id="Layer_1" data-name="Layer 1" xmlns="http://www.w3.org/2000/svg" viewBox="0 0 166.87 167.79"><defs><style>.cls-1{fill:#dff5e9;}.cls-2,.cls-3{fill:#132870;}.cls-2{opacity:0.4;}.cls-3{opacity:0.6;}.cls-4{fill:#fff;opacity:0.7;}.cls-5{fill:none;stroke:#132870;stroke-linecap:round;stroke-linejoin:round;stroke-width:9px;}</style></defs><path class="cls-1" d="M65.31,508.09s-7.57-.54-7.84-6.21-3.24-6.49-3.24-6.49-4,2.43-4,0,3.51-5,3.51-5-2.16-16.58.54-16.58,3.78,2.43,6.49,0a11.36,11.36,0,0,1,9.45-3.24,44.08,44.08,0,0,0,7,0s3.24-4.56,3.24-6.18S81.26,460,78,457a63.6,63.6,0,0,1-4.86-4.86s-.81-23-2.16-24.59,0-5.95,3.78-6.22,9.07-1,12.19,0a65.19,65.19,0,0,0,8.29,2.34c.84,0,3.12-4,3.12-4s-3.72-1-3.72-1.44.36,0-.24-1.56-6.37-1.56-6.61-3.25a39,39,0,0,1-.24-4.32l5.77-1.92L104.1,409l5.8-1.8a18.91,18.91,0,0,1,0-3.84c.24-1.45,5-1.69,5-1.69l19.69,11.05s-2.64,7.09-3.24,10a35.86,35.86,0,0,0-.36,7.33l4.08,5s4.21,2.89,5,3.37,36-5.29,36-5.29l1.44,2.77-3.36,6.48-.12,5.17s-2.4.84-2,1.92a4.24,4.24,0,0,1-.12,2.4l10.59,1.92,5.62,3.85,1.2,5.52,4.93,1.92v3.61l6.36,1.8v3.72c0,.48,1.21,1.32,1.21,1.32v4.93h12.37a56.37,56.37,0,0,1,2.76,5c.24.84-4.44,3.36-4.44,3.36l.6,4.69s3.86,1.44,3.85,3.12,0,2.52,0,2.52l-15.74.6.36,5.77,1.68,14.65a48.05,48.05,0,0,0-4.09,3.49c-1.56,1.56-7,16.57-7,16.57l-18.74-9.25-6.73,2.52-5-.72-3.24-4.44-7.81-.24-4.45,7.33-.48,15.37-3,3.84,2.52,3.85L143.65,560h-10l-15,9.49-3.15-6.85.36-6.6-3.25-3.25-1.68-15L102.21,533l-44.56,2,2.17-9.73,6.12-6.85Z" transform="translate(-50.18 -401.7)"/><path class="cls-2" d="M66.57,463.61a7.46,7.46,0,0,0-7.65,7.25,4.47,4.47,0,0,0,.26,1.88,7.09,7.09,0,0,0,.87,1.92,40.22,40.22,0,0,0,5.7,7.25,1.14,1.14,0,0,0,1.63,0A40.5,40.5,0,0,0,73,474.82a7.05,7.05,0,0,0,1.09-2.51,4.54,4.54,0,0,0,.15-1.23v-.22A7.45,7.45,0,0,0,66.57,463.61Zm0,10.54a3.62,3.62,0,1,1,3.61-3.62A3.62,3.62,0,0,1,66.56,474.15Z" transform="translate(-50.18 -401.7)"/><path class="cls-2" d="M166.45,482.86a7.46,7.46,0,0,0-7.65,7.26,4.42,4.42,0,0,0,.26,1.87,7.09,7.09,0,0,0,.87,1.92,40.22,40.22,0,0,0,5.7,7.25,1.14,1.14,0,0,0,1.63,0,40.38,40.38,0,0,0,5.59-7.08,7.13,7.13,0,0,0,1.09-2.51,4.66,4.66,0,0,0,.15-1.24v-.21A7.46,7.46,0,0,0,166.45,482.86Zm0,10.54a3.62,3.62,0,1,1,3.62-3.62A3.62,3.62,0,0,1,166.44,493.4Z" transform="translate(-50.18 -401.7)"/><path class="cls-2" d="M88.77,507.88a7.46,7.46,0,0,0-7.65,7.26,4.59,4.59,0,0,0,.26,1.87,7,7,0,0,0,.87,1.92A39.89,39.89,0,0,0,88,526.19a1.12,1.12,0,0,0,1.62,0,40,40,0,0,0,5.59-7.09,7.05,7.05,0,0,0,1.09-2.51,4.24,4.24,0,0,0,.15-1.24v-.21A7.46,7.46,0,0,0,88.77,507.88Zm0,10.54a3.62,3.62,0,1,1,3.62-3.62A3.62,3.62,0,0,1,88.76,518.42Z" transform="translate(-50.18 -401.7)"/><path class="cls-2" d="M158.62,434a7.47,7.47,0,0,0-7.65,7.26,4.59,4.59,0,0,0,.26,1.87,7.09,7.09,0,0,0,.87,1.92,39.43,39.43,0,0,0,5.71,7.25,1.12,1.12,0,0,0,1.62,0,40.37,40.37,0,0,0,5.6-7.08,7.11,7.11,0,0,0,1.08-2.51,4.28,4.28,0,0,0,.15-1.24v-.21A7.46,7.46,0,0,0,158.62,434Zm0,10.54a3.62,3.62,0,1,1,3.62-3.62A3.62,3.62,0,0,1,158.61,444.56Z" transform="translate(-50.18 -401.7)"/><path class="cls-3" d="M125.05,472.42a10.72,10.72,0,0,0-11,10.43,6.44,6.44,0,0,0,.36,2.69,10.3,10.3,0,0,0,1.26,2.76,57,57,0,0,0,8.2,10.43,1.62,1.62,0,0,0,2.33,0,58.57,58.57,0,0,0,8-10.19,10.14,10.14,0,0,0,1.56-3.61,6.33,6.33,0,0,0,.22-1.78v-.3A10.72,10.72,0,0,0,125.05,472.42Zm0,15.15a5.21,5.21,0,1,1,5.2-5.21A5.2,5.2,0,0,1,125,487.57Z" transform="translate(-50.18 -401.7)"/><path class="cls-2" d="M115.08,411a7.46,7.46,0,0,0-7.65,7.25,4.63,4.63,0,0,0,.26,1.88,7.09,7.09,0,0,0,.87,1.92,39.77,39.77,0,0,0,5.71,7.25,1.12,1.12,0,0,0,1.62,0,40.12,40.12,0,0,0,5.6-7.09,7.06,7.06,0,0,0,1.08-2.5,4.28,4.28,0,0,0,.15-1.24v-.22A7.45,7.45,0,0,0,115.08,411Zm0,10.54a3.62,3.62,0,1,1,3.62-3.62A3.62,3.62,0,0,1,115.07,421.51Z" transform="translate(-50.18 -401.7)"/><circle class="cls-4" cx="74.86" cy="84.12" r="29.51"/><circle class="cls-5" cx="74.86" cy="84.34" r="31.77"/><line class="cls-5" x1="100.78" y1="108.4" x2="135.57" y2="143.19"/><path class="cls-2" d="M201.88,494.61a7.46,7.46,0,0,0-7.65,7.26,4.59,4.59,0,0,0,.26,1.87,7,7,0,0,0,.87,1.92,40.33,40.33,0,0,0,5.7,7.26,1.14,1.14,0,0,0,1.63,0,40.89,40.89,0,0,0,5.59-7.09,7.05,7.05,0,0,0,1.09-2.51,4.66,4.66,0,0,0,.15-1.24v-.21A7.46,7.46,0,0,0,201.88,494.61Zm0,10.54a3.62,3.62,0,1,1,3.62-3.62A3.62,3.62,0,0,1,201.87,505.15Z" transform="translate(-50.18 -401.7)"/></svg>