<svg id="Layer_1" data-name="Layer 1" xmlns="http://www.w3.org/2000/svg" viewBox="0 0 161.58 153.44"><defs><style>.cls-1{fill:#e978ee;opacity:0.15;}.cls-2{fill:#fca338;stroke:#fca338;stroke-linecap:round;stroke-linejoin:round;stroke-width:5.62px;opacity:0.5;}.cls-3{fill:#132870;}</style></defs><path class="cls-1" d="M464.29,1533.55a84.81,84.81,0,0,1-153.5,72.17" transform="translate(-310.79 -1501.02)"/><circle class="cls-2" cx="43.04" cy="20.73" r="17.92"/><path class="cls-3" d="M410.22,1537.91h16.19a2.24,2.24,0,0,1,2.24,2.25v76.22a2.24,2.24,0,0,1-2.24,2.24H365.88a2.24,2.24,0,0,1-2.24-2.24v-76.22a2.24,2.24,0,0,1,2.24-2.25h16.18v-2.06a2.24,2.24,0,0,1,2.25-2.24h3.43a8.69,8.69,0,0,1,14.55-3.91h0a8.7,8.7,0,0,1,2.26,3.91H408a2.24,2.24,0,0,1,2.24,2.24Zm-31.45,67.82a2.24,2.24,0,0,1,0-4.48h34.75a2.24,2.24,0,0,1,0,4.48Zm0-12a2.24,2.24,0,0,1,0-4.48h34.75a2.24,2.24,0,0,1,0,4.48Zm3.29-51.38H368.12v71.74h56.05V1542.4H410.22v2.06a2.24,2.24,0,0,1-2.24,2.24H384.31a2.24,2.24,0,0,1-2.25-2.24Zm7.63-4.31h-3.14v4.13h19.19v-4.13H402.6a2.24,2.24,0,0,1-2.24-2.24,4.18,4.18,0,0,0-1.24-3h0a4.17,4.17,0,0,0-3-1.22,4.2,4.2,0,0,0-4.21,4.21A2.24,2.24,0,0,1,389.69,1538.09Zm-6.75,31.6a2.23,2.23,0,0,1,2.87-3.42l8.32,7L406.21,1559a2.23,2.23,0,0,1,3.41,2.89l-13.51,16h0a2.22,2.22,0,0,1-3.14.26Z" transform="translate(-310.79 -1501.02)"/></svg>