<?xml version="1.0" encoding="UTF-8" standalone="no"?><!DOCTYPE svg PUBLIC "-//W3C//DTD SVG 1.1//EN" "http://www.w3.org/Graphics/SVG/1.1/DTD/svg11.dtd"><svg width="100%" height="100%" viewBox="0 0 41 41" version="1.1" xmlns="http://www.w3.org/2000/svg" xmlns:xlink="http://www.w3.org/1999/xlink" xml:space="preserve" xmlns:serif="http://www.serif.com/" style="fill-rule:evenodd;clip-rule:evenodd;stroke-linejoin:round;stroke-miterlimit:2;"><path d="M38.632,11.257c1.418,2.83 2.156,5.952 2.156,9.118c0,11.166 -9.188,20.354 -20.354,20.354c-7.779,0 -14.905,-4.459 -18.306,-11.455" style="fill:#e978ee;fill-opacity:0.15;fill-rule:nonzero;"/><path d="M16.156,22.645c-0.573,-2.179 -2.558,-3.71 -4.812,-3.71c-2.729,-0 -4.975,2.246 -4.975,4.975c0,2.727 2.243,4.972 4.97,4.975c0.002,0 0.004,0 0.005,0c2.73,0 4.976,-2.246 4.976,-4.975c-0,-0.427 -0.055,-0.852 -0.164,-1.265Z" style="fill:#f09436;fill-opacity:0.5;fill-rule:nonzero;"/><path d="M32.272,32.255l-7.951,-7.951c1.019,-1.428 1.567,-3.14 1.567,-4.894c-0,-4.621 -3.803,-8.424 -8.424,-8.424c-4.621,0 -8.424,3.803 -8.424,8.424c-0,4.621 3.803,8.424 8.424,8.424c1.967,0 3.873,-0.689 5.386,-1.946l7.896,7.896c0.202,0.202 0.477,0.315 0.763,0.315c0.592,0 1.08,-0.487 1.08,-1.08c0,-0.287 -0.114,-0.562 -0.317,-0.764Zm-14.803,-6.581c-0.001,-0 -0.002,-0 -0.003,-0c-3.439,-0 -6.268,-2.83 -6.268,-6.269c-0,-3.439 2.829,-6.269 6.268,-6.269c3.439,0 6.269,2.83 6.269,6.269c0,0.001 0,0.002 0,0.003c-0.004,3.436 -2.83,6.262 -6.266,6.266Z" style="fill:#132870;fill-rule:nonzero;"/></svg>