<?xml version="1.0" encoding="UTF-8" standalone="no"?><!DOCTYPE svg PUBLIC "-//W3C//DTD SVG 1.1//EN" "http://www.w3.org/Graphics/SVG/1.1/DTD/svg11.dtd"><svg width="100%" height="100%" viewBox="0 0 41 41" version="1.1" xmlns="http://www.w3.org/2000/svg" xmlns:xlink="http://www.w3.org/1999/xlink" xml:space="preserve" xmlns:serif="http://www.serif.com/" style="fill-rule:evenodd;clip-rule:evenodd;stroke-linejoin:round;stroke-miterlimit:2;"><path d="M37.471,31.481c-3.753,5.762 -10.18,9.245 -17.055,9.245c-11.167,0 -20.355,-9.188 -20.355,-20.354c0,-4.062 1.216,-8.033 3.491,-11.398" style="fill:#e978ee;fill-opacity:0.15;fill-rule:nonzero;"/><path d="M31.603,8.744c-0.001,-0 -0.002,-0 -0.002,-0c-2.731,-0 -4.978,2.247 -4.978,4.977c0,2.731 2.247,4.978 4.978,4.978c2.73,-0 4.977,-2.247 4.977,-4.978c-0.002,-2.729 -2.246,-4.973 -4.975,-4.977Z" style="fill:#f09436;fill-opacity:0.6;fill-rule:nonzero;"/><path d="M31.603,20.513l-3.746,0c-0.187,-1.809 -0.899,-3.524 -2.048,-4.934l3.192,-3.195c0.191,-0.181 0.3,-0.433 0.3,-0.696c-0,-0.527 -0.434,-0.96 -0.96,-0.96c-0.263,-0 -0.514,0.108 -0.696,0.298l-3.192,3.192c-1.412,-1.156 -3.133,-1.871 -4.948,-2.057l-0,-3.734c-0,-0.527 -0.434,-0.96 -0.96,-0.96c-0.527,-0 -0.96,0.433 -0.96,0.96l-0,3.734c-1.817,0.185 -3.539,0.901 -4.952,2.057l-3.189,-3.18c-0.18,-0.18 -0.425,-0.281 -0.679,-0.281c-0.527,-0 -0.961,0.433 -0.961,0.96c0,0.255 0.101,0.499 0.281,0.679l3.192,3.195c-1.148,1.41 -1.86,3.125 -2.047,4.934l-3.732,0c-0.526,0 -0.96,0.434 -0.96,0.96c0,0.527 0.434,0.96 0.96,0.96l3.732,0c0.188,1.815 0.904,3.536 2.059,4.949l-3.206,3.192c-0.18,0.18 -0.281,0.425 -0.281,0.679c-0,0.527 0.433,0.961 0.96,0.961c0.255,-0 0.499,-0.102 0.679,-0.282l3.202,-3.206c1.41,1.149 3.127,1.861 4.937,2.047l-0,3.735c-0,0.526 0.433,0.96 0.96,0.96c0.526,-0 0.96,-0.434 0.96,-0.96l-0,-3.735c1.809,-0.186 3.524,-0.898 4.934,-2.047l3.207,3.206c0.181,0.191 0.432,0.299 0.695,0.299c0.527,-0 0.96,-0.434 0.96,-0.96c0,-0.264 -0.108,-0.516 -0.299,-0.697l-3.204,-3.204c1.155,-1.413 1.871,-3.134 2.059,-4.949l3.751,0c0.527,0 0.96,-0.433 0.96,-0.96c0,-0.526 -0.433,-0.96 -0.96,-0.96Zm-13.046,8.4c-0.004,0 -0.008,0 -0.012,0c-4.081,0 -7.44,-3.358 -7.44,-7.44c0,-1.921 0.744,-3.77 2.076,-5.155c0.039,-0.027 0.076,-0.058 0.11,-0.091c0.034,-0.035 0.064,-0.073 0.091,-0.113c2.86,-2.766 7.461,-2.766 10.32,-0c0.028,0.039 0.058,0.076 0.091,0.11c0.036,0.033 0.072,0.063 0.111,0.092c1.328,1.384 2.071,3.231 2.071,5.15c-0,4.079 -3.354,7.436 -7.433,7.44l0.015,0.007Z" style="fill:#132870;fill-rule:nonzero;"/><circle cx="18.545" cy="17.6" r="1.507" style="fill:#132870;"/><path d="M16.003,26.456c-0.001,-0 -0.002,-0 -0.002,-0c-1.775,-0 -3.236,-1.461 -3.236,-3.236c0,-1.774 1.461,-3.235 3.236,-3.235c1.774,0 3.235,1.461 3.235,3.235c-0.001,1.774 -1.46,3.233 -3.233,3.236Zm0,-5.093c-1.019,-0 -1.858,0.838 -1.858,1.857c0,1.019 0.839,1.858 1.858,1.858c1.019,-0 1.858,-0.839 1.858,-1.858c-0,-0 -0,-0.001 -0,-0.002c-0,-1.019 -0.839,-1.859 -1.858,-1.86l0,0.005Z" style="fill:#132870;fill-rule:nonzero;"/><path d="M22.483,22.949c-1.267,0 -2.309,-1.042 -2.309,-2.309c0,-1.266 1.042,-2.308 2.309,-2.308c1.267,-0 2.309,1.042 2.309,2.308c-0.001,1.266 -1.043,2.308 -2.309,2.309Zm0,-3.242c-0.512,-0 -0.934,0.421 -0.934,0.933c0,0.513 0.422,0.934 0.934,0.934c0.512,-0 0.934,-0.421 0.934,-0.934c-0,-0.512 -0.422,-0.933 -0.934,-0.933Z" style="fill:#132870;fill-rule:nonzero;"/></svg>