<?xml version="1.0" encoding="UTF-8" standalone="no"?><!DOCTYPE svg PUBLIC "-//W3C//DTD SVG 1.1//EN" "http://www.w3.org/Graphics/SVG/1.1/DTD/svg11.dtd"><svg width="100%" height="100%" viewBox="0 0 41 41" version="1.1" xmlns="http://www.w3.org/2000/svg" xmlns:xlink="http://www.w3.org/1999/xlink" xml:space="preserve" xmlns:serif="http://www.serif.com/" style="fill-rule:evenodd;clip-rule:evenodd;stroke-linejoin:round;stroke-miterlimit:2;"><path d="M38.761,11.577c1.32,2.749 2.005,5.759 2.005,8.808c-0,11.166 -9.189,20.354 -20.355,20.354c-7.931,0 -15.169,-4.635 -18.487,-11.839" style="fill:#e978ee;fill-opacity:0.15;fill-rule:nonzero;"/><path d="M6.1,12.703c-0.001,-0 -0.002,-0 -0.003,-0c-2.73,-0 -4.977,2.247 -4.977,4.977c-0,2.731 2.247,4.978 4.977,4.978c2.729,0 4.975,-2.244 4.978,-4.973c-0,-2.73 -2.245,-4.978 -4.975,-4.982Z" style="fill:#f09436;fill-opacity:0.5;fill-rule:nonzero;"/><path d="M21.318,34.353c-2.317,0 -4.224,-1.907 -4.224,-4.224c0,-2.317 1.907,-4.224 4.224,-4.224c2.317,0 4.224,1.907 4.224,4.224c-0.003,2.316 -1.908,4.222 -4.224,4.224Zm0,-6.528c-1.264,0 -2.304,1.04 -2.304,2.304c0,1.264 1.04,2.304 2.304,2.304c1.264,0 2.304,-1.04 2.304,-2.304c0,-1.264 -1.04,-2.304 -2.304,-2.304Zm6.146,-1.795c-0.254,0 -0.499,-0.101 -0.679,-0.281c-3.005,-2.996 -7.941,-2.996 -10.946,0c-0.18,0.18 -0.425,0.282 -0.679,0.282c-0.527,-0 -0.961,-0.434 -0.961,-0.961c0,-0.255 0.101,-0.499 0.281,-0.679c3.752,-3.74 9.912,-3.74 13.664,-0c0.18,0.18 0.281,0.424 0.281,0.679c0,0.527 -0.433,0.96 -0.96,0.96c-0,0 -0,0 -0.001,0Zm-15.384,-3.091c-0.526,-0.001 -0.958,-0.434 -0.958,-0.96c0,-0.254 0.101,-0.497 0.279,-0.677c5.431,-5.438 14.371,-5.453 19.819,-0.034l0.034,0.034c0.16,0.177 0.249,0.406 0.249,0.645c-0,0.526 -0.434,0.96 -0.96,0.96c-0.239,-0 -0.468,-0.089 -0.645,-0.249l-0.034,-0.031c-4.704,-4.675 -12.417,-4.661 -17.104,0.031c-0.18,0.18 -0.425,0.281 -0.68,0.281Zm21.531,-3.055c-0.255,-0 -0.499,-0.101 -0.679,-0.281c-6.384,-6.357 -16.859,-6.357 -23.242,-0c-0.178,0.169 -0.415,0.263 -0.661,0.263c-0.526,0 -0.96,-0.433 -0.96,-0.96c0,-0.246 0.095,-0.483 0.265,-0.662c7.13,-7.097 18.826,-7.097 25.956,0c0.371,0.373 0.371,0.984 0,1.356c-0.18,0.181 -0.424,0.283 -0.679,0.284Z" style="fill:#132870;fill-rule:nonzero;"/></svg>