<?xml version="1.0" encoding="UTF-8" standalone="no"?><!DOCTYPE svg PUBLIC "-//W3C//DTD SVG 1.1//EN" "http://www.w3.org/Graphics/SVG/1.1/DTD/svg11.dtd"><svg width="100%" height="100%" viewBox="0 0 41 41" version="1.1" xmlns="http://www.w3.org/2000/svg" xmlns:xlink="http://www.w3.org/1999/xlink" xml:space="preserve" xmlns:serif="http://www.serif.com/" style="fill-rule:evenodd;clip-rule:evenodd;stroke-linejoin:round;stroke-miterlimit:2;"><path d="M40.76,19.917c0.004,0.165 0.006,0.33 0.006,0.495c-0,11.166 -9.189,20.354 -20.355,20.354c-10.979,0 -20.081,-8.883 -20.348,-19.86" style="fill:#e978ee;fill-opacity:0.15;fill-rule:nonzero;"/><path d="M36.452,10.545c-0.743,-1.906 -2.589,-3.168 -4.634,-3.168c-2.728,0 -4.973,2.245 -4.973,4.973c0,2.726 2.242,4.97 4.968,4.973c2.73,-0.001 4.976,-2.247 4.976,-4.978c-0,-0.615 -0.115,-1.226 -0.337,-1.8Z" style="fill:#f09436;fill-opacity:0.5;fill-rule:nonzero;"/><path d="M34.863,22.562c-0.022,-0.073 -0.053,-0.144 -0.091,-0.211l-3.439,-7.2c0.099,-0.146 0.153,-0.32 0.153,-0.497c-0,-0.48 -0.393,-0.877 -0.873,-0.883l-9.305,0.014l-0,-0.196c-0,-0.485 -0.399,-0.884 -0.883,-0.884c-0.485,0 -0.884,0.399 -0.884,0.884l0,0.199l-9.813,0.014c-0.002,0 -0.003,0 -0.004,0c-0.484,0 -0.881,0.398 -0.881,0.881c-0,0.343 0.2,0.655 0.51,0.799l-3.283,6.879c-0.037,0.065 -0.068,0.134 -0.091,0.206c-0.2,0.416 -0.237,0.893 -0.103,1.334l0.014,0.051l0.559,1.531c0.257,0.697 0.921,1.165 1.664,1.174l6.079,-0c0.77,-0.006 1.455,-0.506 1.694,-1.239l0,-0.038l0.442,-1.539l-0,-0.028c0.036,-0.158 0.053,-0.319 0.05,-0.48c0.037,-0.326 -0.029,-0.655 -0.189,-0.941l-3.824,-6.826l7.164,0l0,19.649l-6.789,0c-0.468,0.024 -0.84,0.416 -0.84,0.884c0,0.469 0.372,0.86 0.84,0.885l15.348,-0c0.015,0.001 0.03,0.001 0.046,0.001c0.486,0 0.885,-0.4 0.885,-0.886c0,-0.485 -0.399,-0.885 -0.885,-0.885c-0.016,-0 -0.031,0 -0.046,0.001l-6.787,0l-0,-19.651l7.183,-0l-3.84,6.861c-0.161,0.286 -0.229,0.615 -0.192,0.941c-0.002,0.162 0.016,0.323 0.053,0.48l-0,0.027l0.439,1.538c0.003,0.013 0.007,0.026 0.012,0.038c0.237,0.733 0.922,1.234 1.692,1.239l6.079,-0c0.74,-0.008 1.402,-0.473 1.661,-1.167l0.561,-1.538c0,-0.017 0.012,-0.034 0.017,-0.05c0.143,-0.453 0.106,-0.944 -0.103,-1.371Zm-20.249,0.713l0,0.122l-0.42,1.469c0,0.012 -0.017,0.022 -0.014,0.022l-6.079,-0l-0.548,-1.5c-0.003,-0.013 -0.003,-0.026 0,-0.039c0.005,-0.01 0.011,-0.021 0.017,-0.031c0.024,-0.048 0.044,-0.097 0.06,-0.149l3.204,-6.72l3.783,6.759c-0,0.019 -0.003,0.038 -0.003,0.067Zm18.663,0.108l-0.548,1.505l-6.069,-0c-0.01,-0.006 -0.017,-0.014 -0.022,-0.024l-0.42,-1.469l0,-0.187l3.139,-5.611l0.644,-1.148l3.201,6.72c0.017,0.05 0.038,0.099 0.06,0.147l0.019,0.033c0.001,0.009 -0.001,0.018 -0.004,0.027l-0,0.007Z" style="fill:#132870;fill-rule:nonzero;"/></svg>