<?xml version="1.0" encoding="UTF-8" standalone="no"?><!DOCTYPE svg PUBLIC "-//W3C//DTD SVG 1.1//EN" "http://www.w3.org/Graphics/SVG/1.1/DTD/svg11.dtd"><svg width="100%" height="100%" viewBox="0 0 41 41" version="1.1" xmlns="http://www.w3.org/2000/svg" xmlns:xlink="http://www.w3.org/1999/xlink" xml:space="preserve" xmlns:serif="http://www.serif.com/" style="fill-rule:evenodd;clip-rule:evenodd;stroke-linejoin:round;stroke-miterlimit:2;"><path d="M9.282,37.35c-5.694,-3.765 -9.128,-10.152 -9.128,-16.978c-0,-11.167 9.189,-20.355 20.355,-20.355c3.992,-0 7.897,1.174 11.227,3.376" style="fill:#e978ee;fill-opacity:0.15;fill-rule:nonzero;"/><path d="M35.752,5.903c-0.188,-2.585 -2.368,-4.611 -4.959,-4.611c-2.728,-0 -4.973,2.245 -4.973,4.973c-0,2.728 2.245,4.973 4.973,4.973c1.442,-0 2.815,-0.628 3.759,-1.718c0.867,-0.997 1.3,-2.3 1.2,-3.617Z" style="fill:#f09436;fill-opacity:0.5;fill-rule:nonzero;"/><path d="M10.266,10.904c-2.633,-0 -4.8,2.166 -4.8,4.8c-0.006,1.487 0.724,2.885 1.949,3.729c-3.103,1.176 -5.166,4.166 -5.163,7.483c0.029,0.425 0.386,0.76 0.812,0.76c0.435,-0 0.797,-0.349 0.813,-0.784c-0,-0.021 -0,-0.043 -0,-0.064c-0,-3.479 2.855,-6.345 6.334,-6.358c2.093,-0.012 4.066,0.999 5.28,2.705c-1.815,1.519 -2.86,3.77 -2.849,6.137c0.007,0.44 0.371,0.798 0.811,0.798c0.445,-0 0.811,-0.366 0.811,-0.812c0,-0.004 0,-0.008 0,-0.013c-0.001,-0.05 -0.001,-0.1 -0.001,-0.15c-0,-3.503 2.883,-6.386 6.386,-6.386c3.503,-0 6.386,2.883 6.386,6.386c0,0.03 0,0.06 -0,0.09c0.032,0.437 0.377,0.791 0.813,0.835c0.454,-0.025 0.814,-0.406 0.812,-0.861c-0.021,-2.318 -1.052,-4.516 -2.823,-6.012c1.192,-1.701 3.143,-2.716 5.22,-2.716c3.497,-0 6.375,2.877 6.375,6.374c-0,0.003 -0,0.006 -0,0.009c0.023,0.429 0.382,0.77 0.812,0.77c0.43,-0 0.789,-0.341 0.812,-0.77c-0.011,-2.768 -1.461,-5.341 -3.823,-6.785c-0.414,-0.252 -0.849,-0.469 -1.301,-0.648c1.209,-0.855 1.927,-2.249 1.92,-3.729c0,-2.634 -2.166,-4.8 -4.8,-4.8c-2.633,-0 -4.8,2.166 -4.8,4.8c-0.004,1.477 0.713,2.866 1.92,3.717c-1.474,0.571 -2.744,1.569 -3.648,2.866c-0.309,-0.171 -0.63,-0.321 -0.96,-0.449c1.197,-0.863 1.905,-2.254 1.899,-3.73c-0,-2.633 -2.167,-4.8 -4.8,-4.8c-2.633,0 -4.8,2.167 -4.8,4.8c-0,1.484 0.723,2.877 1.937,3.73c-0.34,0.126 -0.671,0.276 -0.989,0.449c-0.916,-1.299 -2.2,-2.293 -3.687,-2.856c1.218,-0.844 1.943,-2.236 1.937,-3.718c0,-2.633 -2.167,-4.8 -4.8,-4.8l0.005,0.003Zm-0,1.596c1.751,0.002 3.19,1.444 3.19,3.194c-0,1.752 -1.442,3.194 -3.195,3.194c-1.752,0 -3.194,-1.442 -3.194,-3.194c-0,-0.003 -0,-0.006 -0,-0.01c-0,-1.747 1.437,-3.184 3.185,-3.184c0.004,-0 0.009,-0 0.014,-0Zm20.794,-0c1.75,0.002 3.189,1.444 3.189,3.194c0,1.752 -1.442,3.194 -3.194,3.194c-1.753,0 -3.195,-1.442 -3.195,-3.194c0,-0.004 0,-0.008 0,-0.012c0,-1.746 1.437,-3.182 3.183,-3.182l0.017,-0Zm-10.397,2.4c1.751,-0 3.192,1.441 3.192,3.192c-0,1.751 -1.441,3.192 -3.192,3.192c-1.865,0.028 -3.192,-1.395 -3.199,-3.192c-0,-0.004 -0,-0.008 -0,-0.012c-0,-1.747 1.437,-3.185 3.184,-3.185c0.005,-0 0.01,-0 0.015,-0l-0,0.005Z" style="fill:#132870;fill-rule:nonzero;"/></svg>