<?xml version="1.0" encoding="UTF-8" standalone="no"?><!DOCTYPE svg PUBLIC "-//W3C//DTD SVG 1.1//EN" "http://www.w3.org/Graphics/SVG/1.1/DTD/svg11.dtd"><svg width="100%" height="100%" viewBox="0 0 41 41" version="1.1" xmlns="http://www.w3.org/2000/svg" xmlns:xlink="http://www.w3.org/1999/xlink" xml:space="preserve" xmlns:serif="http://www.serif.com/" style="fill-rule:evenodd;clip-rule:evenodd;stroke-linejoin:round;stroke-miterlimit:2;"><path d="M40.356,16.178c0.286,1.369 0.43,2.764 0.43,4.163c-0,11.166 -9.188,20.354 -20.355,20.354c-9.753,0 -18.204,-7.01 -20.004,-16.597" style="fill:#e978ee;fill-opacity:0.15;fill-rule:nonzero;"/><path d="M29.714,14.11c-0.001,-0 -0.002,-0 -0.002,-0c-2.731,-0 -4.978,2.246 -4.978,4.977c0,2.731 2.247,4.978 4.978,4.978c2.73,-0 4.977,-2.247 4.977,-4.978c-0.002,-2.729 -2.246,-4.974 -4.975,-4.977Z" style="fill:#f09436;fill-opacity:0.5;fill-rule:nonzero;"/><path d="M30.612,20.822c-2.685,-2.683 -6.971,-3.006 -10.028,-0.756c-1.325,-0.974 -2.928,-1.5 -4.573,-1.5c-4.236,-0 -7.721,3.485 -7.721,7.721c0,2.052 0.818,4.022 2.272,5.47l8.4,8.4c0.891,0.887 2.354,0.887 3.245,-0l8.4,-8.4c2.997,-2.999 2.997,-7.931 -0,-10.93l0.005,-0.005Zm-18.828,1.222c1.985,-1.99 5.118,-2.325 7.48,-0.802l-4.744,4.748c-0.682,0.679 -0.632,1.68 0.122,2.433c0.116,0.114 0.241,0.219 0.374,0.312l-2.114,2.115c-0.133,0.137 -0.248,0.29 -0.343,0.456l-0.775,-0.776c-1.126,-1.125 -1.758,-2.652 -1.758,-4.243c-0,-1.591 0.632,-3.118 1.758,-4.243Zm17.606,8.486l-8.4,8.4c-0.106,0.102 -0.247,0.159 -0.394,0.159c-0.308,0 -0.562,-0.251 -0.566,-0.559c0.002,-0.15 0.061,-0.293 0.166,-0.399l4.144,-4.145c0.154,-0.16 0.241,-0.375 0.241,-0.597c-0,-0.474 -0.39,-0.864 -0.864,-0.864c-0.223,-0 -0.437,0.086 -0.598,0.24l-4.152,4.154c-0.22,0.219 -0.58,0.219 -0.799,0c-0.106,-0.105 -0.166,-0.249 -0.166,-0.398c-0,-0.15 0.06,-0.293 0.166,-0.399l4.154,-4.154c0.154,-0.161 0.24,-0.375 0.24,-0.598c0,-0.474 -0.39,-0.864 -0.864,-0.864c-0.223,0 -0.437,0.086 -0.598,0.24l-4.154,4.155c-0.106,0.106 -0.25,0.165 -0.4,0.165c-0.31,0 -0.565,-0.255 -0.565,-0.565c0,-0.15 0.06,-0.294 0.166,-0.399l4.154,-4.155c0.154,-0.161 0.24,-0.375 0.24,-0.598c0,-0.474 -0.39,-0.864 -0.864,-0.864c-0.222,0 -0.437,0.086 -0.597,0.241l-4.15,4.144c-0.106,0.106 -0.25,0.166 -0.4,0.166c-0.31,-0 -0.565,-0.255 -0.565,-0.565c0,-0.15 0.06,-0.294 0.166,-0.4l2.774,-2.774c0.816,-0.024 1.591,-0.364 2.16,-0.948l1.663,-1.663c0.655,0.546 1.444,0.907 2.285,1.046c1.111,0.144 2.226,-0.259 2.988,-1.08c0.17,-0.163 0.267,-0.388 0.267,-0.624c-0,-0.474 -0.391,-0.864 -0.864,-0.864c-0.236,0 -0.461,0.096 -0.624,0.266c-0.383,0.44 -0.961,0.661 -1.539,0.588c-0.609,-0.081 -1.279,-0.48 -1.937,-1.13c-0.335,-0.334 -0.885,-0.334 -1.221,-0l-2.239,2.239c-0.351,0.372 -0.878,0.524 -1.373,0.399c-0.256,-0.054 -0.489,-0.188 -0.665,-0.382l5.098,-5.098c1.13,-1.17 2.689,-1.831 4.315,-1.831c3.292,-0 6,2.708 6,6c0,1.626 -0.661,3.185 -1.831,4.315l0.002,0Z" style="fill:#132870;fill-rule:nonzero;"/></svg>