<?xml version="1.0" encoding="UTF-8" standalone="no"?><!DOCTYPE svg PUBLIC "-//W3C//DTD SVG 1.1//EN" "http://www.w3.org/Graphics/SVG/1.1/DTD/svg11.dtd"><svg width="100%" height="100%" viewBox="0 0 41 41" version="1.1" xmlns="http://www.w3.org/2000/svg" xmlns:xlink="http://www.w3.org/1999/xlink" xml:space="preserve" xmlns:serif="http://www.serif.com/" style="fill-rule:evenodd;clip-rule:evenodd;stroke-linejoin:round;stroke-miterlimit:2;"><path d="M37.274,31.812c-3.779,5.615 -10.119,8.99 -16.887,8.99c-11.166,0 -20.354,-9.188 -20.354,-20.354c-0,-3.96 1.155,-7.835 3.324,-11.148" style="fill:#e978ee;fill-opacity:0.15;fill-rule:nonzero;"/><path d="M12.614,9.602c-0.001,0 -0.002,0 -0.002,0c-2.731,0 -4.978,2.247 -4.978,4.978c-0,2.73 2.247,4.977 4.978,4.977c2.73,0 4.977,-2.247 4.977,-4.977c-0.002,-2.729 -2.246,-4.974 -4.975,-4.978Z" style="fill:#f09436;fill-opacity:0.5;fill-rule:nonzero;"/><path d="M14.488,17.084c-0.458,0 -0.835,-0.377 -0.835,-0.835l-0,-4.433c-0,-0.458 0.377,-0.835 0.835,-0.835l14.787,0c0.014,-0.001 0.029,-0.001 0.044,-0.001c0.458,-0 0.836,0.377 0.836,0.835c-0,0.458 -0.378,0.835 -0.836,0.835c-0.015,0 -0.03,-0 -0.044,-0.001l-13.944,0l-0,3.6c-0,0.458 -0.377,0.835 -0.836,0.835c-0.002,0 -0.004,0 -0.007,0Z" style="fill:#132870;fill-rule:nonzero;"/><path d="M32.74,30.556c-0.16,-0 -0.317,-0.046 -0.451,-0.132l-4.992,-3.219l-3.682,0c-0.46,0 -0.84,-0.379 -0.84,-0.84c0,-0.461 0.38,-0.84 0.84,-0.84l3.927,0c0.161,-0 0.318,0.047 0.453,0.135l3.912,2.52l0,-15.255c0.024,-0.44 0.393,-0.79 0.834,-0.79c0.442,-0 0.811,0.35 0.834,0.79l0,16.8c-0,0.305 -0.167,0.586 -0.434,0.732c-0.124,0.065 -0.261,0.099 -0.401,0.099Z" style="fill:#132870;fill-rule:nonzero;"/><path d="M5.361,38.572c-0.139,-0 -0.277,-0.036 -0.398,-0.104c-0.265,-0.143 -0.431,-0.419 -0.435,-0.72l0,-17.918c0,-0.457 0.376,-0.833 0.833,-0.833l5.198,0c0.461,0 0.84,0.379 0.84,0.84c0,0.461 -0.379,0.84 -0.84,0.84l-4.363,0l0,15.543l3.912,-2.523c0.135,-0.086 0.291,-0.132 0.451,-0.132l12.212,0l-0,-12.888l-4.932,0c-0.461,0 -0.84,-0.379 -0.84,-0.84c-0,-0.461 0.379,-0.84 0.84,-0.84l5.776,0c0.457,0 0.833,0.376 0.833,0.833l0,14.556c0,0.001 0,0.002 0,0.002c0,0.457 -0.376,0.833 -0.833,0.833l-12.808,0l-4.992,3.216c-0.136,0.088 -0.293,0.134 -0.454,0.135Z" style="fill:#132870;fill-rule:nonzero;"/><path d="M21.227,25.268l-12.703,0c-0.461,0 -0.84,-0.379 -0.84,-0.84c0,-0.46 0.379,-0.84 0.84,-0.84l12.703,0c0.461,0 0.84,0.38 0.84,0.84c0,0.461 -0.379,0.84 -0.84,0.84Z" style="fill:#132870;fill-rule:nonzero;"/><path d="M21.227,28.088l-12.703,0c-0.461,0 -0.84,-0.379 -0.84,-0.84c0,-0.46 0.379,-0.84 0.84,-0.84l12.703,0c0.461,0 0.84,0.38 0.84,0.84c0,0.461 -0.379,0.84 -0.84,0.84Z" style="fill:#132870;fill-rule:nonzero;"/><path d="M21.227,30.906l-12.703,-0c-0.461,-0 -0.84,-0.379 -0.84,-0.84c0,-0.461 0.379,-0.84 0.84,-0.84l12.703,-0c0.461,-0 0.84,0.379 0.84,0.84c0,0.461 -0.379,0.84 -0.84,0.84Z" style="fill:#132870;fill-rule:nonzero;"/></svg>