<?xml version="1.0" encoding="UTF-8" standalone="no"?><!DOCTYPE svg PUBLIC "-//W3C//DTD SVG 1.1//EN" "http://www.w3.org/Graphics/SVG/1.1/DTD/svg11.dtd"><svg width="100%" height="100%" viewBox="0 0 41 41" version="1.1" xmlns="http://www.w3.org/2000/svg" xmlns:xlink="http://www.w3.org/1999/xlink" xml:space="preserve" xmlns:serif="http://www.serif.com/" style="fill-rule:evenodd;clip-rule:evenodd;stroke-linejoin:round;stroke-miterlimit:2;"><path d="M26.5,5.232c-0,0 -0.001,0 -0.002,0c-2.731,0 -4.978,2.247 -4.978,4.978c0,2.73 2.247,4.977 4.978,4.977c2.728,0 4.974,-2.242 4.978,-4.97c0.001,-2.731 -2.244,-4.981 -4.976,-4.985Z" style="fill:#f09436;fill-opacity:0.5;fill-rule:nonzero;"/><path d="M40.171,25.289c-2.266,9.02 -10.441,15.395 -19.741,15.395c-11.166,-0 -20.355,-9.189 -20.355,-20.355c0,-1.81 0.242,-3.613 0.719,-5.36" style="fill:#e978ee;fill-opacity:0.15;fill-rule:nonzero;"/><path d="M19.197,8.136c0.461,0 0.841,-0.379 0.843,-0.84l-0,-1.697c0.001,-0.021 0.002,-0.042 0.002,-0.063c-0,-0.462 -0.38,-0.843 -0.842,-0.843c-0.463,0 -0.843,0.381 -0.843,0.843c0,0.021 0.001,0.042 0.003,0.063l-0,1.697c-0,0.461 0.379,0.84 0.84,0.84l-0.003,0Z" style="fill:#132870;fill-rule:nonzero;"/><path d="M32.032,16.258l-1.807,-0c-0.01,-0.001 -0.02,-0.001 -0.031,-0.001c-0.462,0 -0.842,0.381 -0.842,0.843c-0,0.43 0.33,0.795 0.758,0.838l1.81,-0c0.028,0.003 0.057,0.004 0.085,0.004c0.462,0 0.843,-0.38 0.843,-0.842c-0,-0.452 -0.364,-0.828 -0.816,-0.842Z" style="fill:#132870;fill-rule:nonzero;"/><path d="M8.287,16.258l-1.81,-0c-0.028,-0.003 -0.057,-0.005 -0.085,-0.005c-0.463,0 -0.843,0.381 -0.843,0.843c0,0.452 0.364,0.827 0.815,0.842l1.808,-0c0.01,0 0.02,0 0.03,0c0.463,0 0.843,-0.38 0.843,-0.842c-0,-0.43 -0.33,-0.795 -0.758,-0.838Z" style="fill:#132870;fill-rule:nonzero;"/><path d="M11.071,11.035c0.46,-0.006 0.835,-0.387 0.835,-0.847c-0,-0.221 -0.087,-0.434 -0.242,-0.593l-1.2,-1.2c-0.159,-0.159 -0.375,-0.248 -0.6,-0.248c-0.466,-0 -0.849,0.383 -0.849,0.848c0,0.225 0.09,0.441 0.249,0.6l1.2,1.2c0.162,0.158 0.381,0.244 0.607,0.24Z" style="fill:#132870;fill-rule:nonzero;"/><path d="M27.439,8.398l-1.2,1.2c-0.179,0.16 -0.281,0.388 -0.281,0.628c-0,0.462 0.38,0.842 0.842,0.842c0.223,0 0.438,-0.088 0.596,-0.246l1.233,-1.234c0.16,-0.158 0.251,-0.374 0.251,-0.6c-0,-0.463 -0.381,-0.843 -0.844,-0.843c-0.221,-0 -0.435,0.087 -0.592,0.243l-0.005,0.01Z" style="fill:#132870;fill-rule:nonzero;"/><path d="M19.046,9.737c-2.502,0.053 -4.877,1.122 -6.576,2.959c-1.777,1.872 -2.728,4.381 -2.64,6.96c0.092,2.532 1.193,4.925 3.058,6.641c0.919,0.833 1.45,2.014 1.464,3.254l-0,0.905c0.001,0.342 0.184,0.658 0.48,0.828l-0,3.483c-0,1.185 0.975,2.16 2.16,2.16l4.408,-0c1.185,-0 2.16,-0.975 2.16,-2.16l0,-3.483c0.296,-0.17 0.479,-0.486 0.48,-0.828l0,-0.897c0.026,-1.271 0.581,-2.476 1.532,-3.32c1.92,-1.812 3.01,-4.34 3.01,-6.981c0,-2.453 -0.94,-4.816 -2.626,-6.598c-0.077,-0.079 -0.154,-0.158 -0.24,-0.24c-1.773,-1.752 -4.178,-2.719 -6.67,-2.683Zm2.594,25.022c0,0.132 -0.108,0.24 -0.24,0.24l-4.406,0c-0.132,0 -0.24,-0.108 -0.24,-0.24l-0,-3.36l4.884,0l0.002,3.36Zm2.619,-9.919c-1.321,1.191 -2.094,2.876 -2.134,4.654l-5.853,-0c-0.035,-1.752 -0.789,-3.414 -2.084,-4.594c-1.494,-1.375 -2.375,-3.294 -2.445,-5.323c-0.067,-2.063 0.696,-4.069 2.117,-5.566c1.38,-1.502 3.33,-2.359 5.371,-2.359c1.828,0 3.591,0.688 4.937,1.925c0.074,0.067 0.148,0.137 0.218,0.209c1.457,1.445 2.278,3.415 2.278,5.467c0,2.03 -0.803,3.98 -2.232,5.422l-0.173,0.165Z" style="fill:#132870;fill-rule:nonzero;"/></svg>