<?xml version="1.0" encoding="UTF-8" standalone="no"?><!DOCTYPE svg PUBLIC "-//W3C//DTD SVG 1.1//EN" "http://www.w3.org/Graphics/SVG/1.1/DTD/svg11.dtd"><svg width="100%" height="100%" viewBox="0 0 41 41" version="1.1" xmlns="http://www.w3.org/2000/svg" xmlns:xlink="http://www.w3.org/1999/xlink" xml:space="preserve" xmlns:serif="http://www.serif.com/" style="fill-rule:evenodd;clip-rule:evenodd;stroke-linejoin:round;stroke-miterlimit:2;"><path d="M0.414,16.566c-0.233,1.239 -0.35,2.497 -0.35,3.758c-0,11.166 9.188,20.354 20.354,20.354c9.601,-0 17.961,-6.793 19.924,-16.192" style="fill:#e978ee;fill-opacity:0.15;fill-rule:nonzero;"/><path d="M10.82,14.5c-2.729,-0 -4.975,2.246 -4.975,4.975c-0,2.729 2.246,4.975 4.975,4.975c2.729,0 4.975,-2.246 4.975,-4.975c-0.004,-2.728 -2.247,-4.971 -4.975,-4.975Z" style="fill:#f09436;fill-opacity:0.5;fill-rule:nonzero;"/><path d="M20.084,37.024c-0.479,0.001 -0.943,-0.169 -1.308,-0.48l-7.752,-6.598c-2.004,-1.703 -2.865,-4.412 -2.213,-6.96l0.027,-0.1c0.78,-3.039 3.541,-5.181 6.678,-5.181c1.406,-0 2.78,0.43 3.934,1.233l0.608,0.424l0.288,-0.208c1.178,-0.859 2.6,-1.321 4.058,-1.321c3.146,0 5.912,2.154 6.684,5.204c0.01,0.036 0.017,0.073 0.022,0.11c0.6,2.48 -0.235,5.097 -2.16,6.771l-7.541,6.616c-0.368,0.318 -0.839,0.492 -1.325,0.49Zm-4.56,-17.16c-2.16,-0.005 -4.063,1.47 -4.596,3.564l-0.026,0.103c-0.444,1.745 0.147,3.598 1.519,4.764l7.665,6.523l7.44,-6.525c1.341,-1.162 1.913,-2.988 1.474,-4.707c0,-0.033 -0.014,-0.064 -0.019,-0.098c-0.558,-2.058 -2.44,-3.497 -4.572,-3.497c-1.002,-0 -1.979,0.318 -2.789,0.907l-0.912,0.663c-0.374,0.265 -0.879,0.265 -1.253,-0l-1.236,-0.864c-0.792,-0.547 -1.733,-0.838 -2.695,-0.833Z" style="fill:#132870;fill-rule:nonzero;"/></svg>