<?xml version="1.0" encoding="UTF-8" standalone="no"?><!DOCTYPE svg PUBLIC "-//W3C//DTD SVG 1.1//EN" "http://www.w3.org/Graphics/SVG/1.1/DTD/svg11.dtd"><svg width="100%" height="100%" viewBox="0 0 41 41" version="1.1" xmlns="http://www.w3.org/2000/svg" xmlns:xlink="http://www.w3.org/1999/xlink" xml:space="preserve" xmlns:serif="http://www.serif.com/" style="fill-rule:evenodd;clip-rule:evenodd;stroke-linejoin:round;stroke-miterlimit:2;"><path d="M40.852,21.421c-0.14,3.063 -0.971,6.056 -2.431,8.754c-5.315,9.82 -17.768,13.527 -27.589,8.212c-6.993,-3.784 -11.154,-11.334 -10.62,-19.267" style="fill:#e978ee;fill-opacity:0.15;fill-rule:nonzero;"/><path d="M9.718,11.147l-0.002,0c-2.731,0 -4.978,2.247 -4.978,4.978c0,2.731 2.247,4.978 4.978,4.978c2.73,0 4.977,-2.247 4.977,-4.978c-0.002,-2.729 -2.246,-4.974 -4.975,-4.978Z" style="fill:#f09436;fill-opacity:0.5;fill-rule:nonzero;"/><path d="M27.88,8.276l5.866,0c0.445,0 0.811,0.366 0.811,0.811l-0,27.624c-0,0.445 -0.366,0.812 -0.811,0.812l-21.946,0c-0.445,0 -0.811,-0.367 -0.811,-0.812l-0,-27.624c-0,-0.445 0.366,-0.811 0.811,-0.811l5.866,0l-0,-0.749c-0,-0.445 0.366,-0.811 0.811,-0.811l1.243,0c0.363,-1.378 1.619,-2.347 3.045,-2.347c0.839,0 1.644,0.336 2.235,0.931c0.393,0.393 0.674,0.882 0.816,1.419l1.246,0c0.445,0 0.811,0.366 0.811,0.811l0.007,0.746Zm-11.4,24.574c-0.429,-0.023 -0.769,-0.383 -0.769,-0.813c0,-0.429 0.34,-0.789 0.769,-0.812l12.593,0c0.015,-0.001 0.029,-0.001 0.044,-0.001c0.446,0 0.814,0.367 0.814,0.813c0,0.447 -0.368,0.814 -0.814,0.814c-0.015,0 -0.029,0 -0.044,-0.001l-12.593,0Zm0,-4.32c-0.429,-0.023 -0.769,-0.383 -0.769,-0.813c0,-0.429 0.34,-0.789 0.769,-0.812l12.593,0c0.015,-0.001 0.029,-0.001 0.044,-0.001c0.446,0 0.814,0.367 0.814,0.813c0,0.447 -0.368,0.814 -0.814,0.814c-0.015,0 -0.029,0 -0.044,-0.001l-12.593,0Zm1.2,-18.619l-5.04,0l0,25.996l20.28,0l0,-26.004l-5.04,0l0,0.747c0,0.445 -0.366,0.811 -0.811,0.811l-8.59,0c-0.445,0 -0.811,-0.366 -0.811,-0.811l0.012,-0.739Zm2.763,-1.56l-1.138,0l-0,1.492l6.96,0l-0,-1.492l-1.138,0c-0.446,0 -0.813,-0.368 -0.813,-0.814c0.001,-0.405 -0.16,-0.794 -0.447,-1.08c-0.286,-0.284 -0.674,-0.444 -1.077,-0.444c-0.838,0 -1.528,0.689 -1.529,1.526c-0.007,0.445 -0.376,0.806 -0.821,0.802l0.003,0.01Zm-2.446,11.448c-0.183,-0.154 -0.288,-0.381 -0.288,-0.62c-0,-0.443 0.365,-0.809 0.809,-0.809c0.19,0 0.375,0.068 0.521,0.19l3.014,2.542l4.375,-5.167c0.154,-0.196 0.39,-0.311 0.639,-0.311c0.445,0 0.811,0.366 0.811,0.811c-0,0.202 -0.076,0.397 -0.211,0.546l-4.896,5.784c-0.154,0.182 -0.38,0.287 -0.617,0.287c-0.191,0 -0.376,-0.068 -0.521,-0.191l-3.636,-3.062Z" style="fill:#132870;fill-rule:nonzero;"/></svg>