<?xml version="1.0" encoding="UTF-8" standalone="no"?><!DOCTYPE svg PUBLIC "-//W3C//DTD SVG 1.1//EN" "http://www.w3.org/Graphics/SVG/1.1/DTD/svg11.dtd"><svg width="100%" height="100%" viewBox="0 0 41 41" version="1.1" xmlns="http://www.w3.org/2000/svg" xmlns:xlink="http://www.w3.org/1999/xlink" xml:space="preserve" xmlns:serif="http://www.serif.com/" style="fill-rule:evenodd;clip-rule:evenodd;stroke-linejoin:round;stroke-miterlimit:2;"><path d="M2.413,29.791c-2.998,-5.763 -3.063,-12.627 -0.175,-18.446c4.965,-10.001 17.282,-14.145 27.283,-9.18c3.801,1.886 6.917,4.915 8.913,8.66" style="fill:#e978ee;fill-opacity:0.15;fill-rule:nonzero;"/><path d="M29.571,9.364c-2.73,-0 -4.977,2.246 -4.977,4.977c-0,2.731 2.247,4.978 4.977,4.978c2.731,-0 4.978,-2.247 4.978,-4.978c-0.003,-2.73 -2.248,-4.975 -4.978,-4.977Z" style="fill:#f09436;fill-opacity:0.5;fill-rule:nonzero;"/><path d="M30.918,24.301c-0.772,-0.767 -1.773,-1.26 -2.851,-1.404l-8.623,-8.624c-0.022,-1.905 -0.8,-3.725 -2.16,-5.059c-1.133,-1.15 -2.614,-1.896 -4.212,-2.119c-0.754,-0.119 -1.501,0.273 -1.832,0.96c-0.367,0.791 -0.189,1.733 0.442,2.335l1.373,1.373c0.156,0.154 0.146,0.324 0.115,0.355l-1.44,1.455c-0.028,0.013 -0.06,0.019 -0.091,0.016c-0.102,-0.012 -0.196,-0.06 -0.267,-0.134l-1.37,-1.373c-0.595,-0.627 -1.53,-0.805 -2.314,-0.441c-0.705,0.347 -1.105,1.119 -0.981,1.896c0.298,1.975 1.38,3.75 3,4.92c1.209,0.905 2.677,1.402 4.188,1.416l8.601,8.601c0.327,2.454 2.443,4.306 4.918,4.306c2.721,0 4.96,-2.239 4.96,-4.961c-0,-1.317 -0.524,-2.581 -1.456,-3.511l-0,-0.007Zm-22.517,-11.004c-0.014,-0.104 0.015,-0.118 0.031,-0.125c0.023,-0.012 0.049,-0.017 0.075,-0.017c0.104,0.007 0.2,0.056 0.269,0.134l1.37,1.373c0.362,0.365 0.842,0.589 1.354,0.631c0.527,0.046 1.049,-0.143 1.425,-0.516l1.455,-1.44c0.734,-0.734 0.681,-1.98 -0.118,-2.779l-1.373,-1.373c-0.082,-0.072 -0.13,-0.176 -0.129,-0.285c-0,-0.06 0.021,-0.091 0.093,-0.094c1.224,0.173 2.357,0.746 3.221,1.63c1.115,1.077 1.714,2.584 1.644,4.133c-0.052,1.25 -0.729,2.394 -1.8,3.04c-0.526,0.317 -1.122,0.501 -1.735,0.536l-0.019,0c-1.237,0.057 -2.454,-0.322 -3.44,-1.071c-1.25,-0.895 -2.088,-2.258 -2.323,-3.777Zm7.558,6.187c0.132,-0.051 0.259,-0.108 0.386,-0.168l0.079,-0.041c0.132,-0.065 0.262,-0.134 0.387,-0.211c0.125,-0.077 0.24,-0.156 0.357,-0.24l0.065,-0.048c0.096,-0.072 0.19,-0.147 0.279,-0.223c0.019,-0.017 0.04,-0.032 0.057,-0.048c0.106,-0.092 0.209,-0.188 0.305,-0.286l0.031,-0.034c0.084,-0.086 0.166,-0.177 0.24,-0.271l0.065,-0.079c0.074,-0.091 0.146,-0.185 0.214,-0.278c0.01,-0.017 0.021,-0.033 0.033,-0.048c0.077,-0.113 0.151,-0.24 0.219,-0.346l0.038,-0.067c0.056,-0.098 0.109,-0.199 0.158,-0.303l0.041,-0.086c0.058,-0.125 0.113,-0.24 0.161,-0.379l6.768,6.77c-0.225,0.077 -0.444,0.17 -0.655,0.279c-0.075,0.038 -0.149,0.076 -0.221,0.117l-0.019,0c-0.07,0.039 -0.137,0.079 -0.204,0.123l-0.031,0.021c-0.063,0.041 -0.125,0.082 -0.185,0.125l-0.048,0.036l-0.166,0.125l-0.069,0.057l-0.135,0.116c-0.067,0.06 -0.134,0.122 -0.199,0.187c-0.065,0.065 -0.13,0.134 -0.192,0.204l-0.053,0.062l-0.127,0.151l-0.062,0.082l-0.104,0.139l-0.064,0.096c-0.029,0.043 -0.06,0.089 -0.087,0.135c-0.026,0.045 -0.043,0.069 -0.065,0.105c-0.021,0.036 -0.05,0.084 -0.074,0.13c-0.024,0.045 -0.043,0.077 -0.062,0.115c-0.02,0.038 -0.044,0.084 -0.063,0.125c-0.019,0.041 -0.041,0.081 -0.057,0.125c-0.017,0.043 -0.036,0.081 -0.056,0.124l-0.052,0.13l-0.046,0.125c-0,0.033 -0.024,0.065 -0.034,0.098l-6.753,-6.751l-0,0.005Zm13.747,10.62c-1.278,1.221 -3.318,1.221 -4.596,0c-0.552,-0.556 -0.886,-1.292 -0.941,-2.074l-0,-0.017c-0.061,-0.931 0.282,-1.845 0.941,-2.505c0.079,-0.081 0.163,-0.156 0.252,-0.226c0.022,-0.019 0.046,-0.033 0.067,-0.05c0.065,-0.051 0.132,-0.099 0.199,-0.144l0.104,-0.063c0.06,-0.036 0.122,-0.072 0.184,-0.103l0.113,-0.055c0.063,-0.029 0.125,-0.058 0.19,-0.082l0.117,-0.043l0.202,-0.062l0.115,-0.029c0.07,-0.017 0.142,-0.031 0.211,-0.043l0.116,-0.017c0.072,0 0.144,-0.017 0.218,-0.022l0.444,0c0.777,0.058 1.509,0.391 2.064,0.939c0.61,0.609 0.953,1.437 0.953,2.299c-0,0.862 -0.343,1.69 -0.953,2.299l-0,-0.002Z" style="fill:#132870;fill-rule:nonzero;"/></svg>